<svg width="1918" height="1918" xmlns="http://www.w3.org/2000/svg" xmlns:xlink="http://www.w3.org/1999/xlink" overflow="hidden"><defs><clipPath id="clip0"><rect x="833" y="317" width="1918" height="1918"/></clipPath></defs><g clip-path="url(#clip0)" transform="translate(-833 -317)"><path d="M2675.51 1308.76C2659.94 1289.69 2659.94 1262.31 2675.51 1243.24L2739.31 1165.07C2757.41 1142.92 2754.12 1110.3 2731.97 1092.2 2730.46 1090.96 2728.88 1089.82 2727.24 1088.76L2642.39 1034.12C2621.7 1020.81 2613.24 994.78 2622.14 971.848L2658.68 877.749C2669.03 851.089 2655.81 821.08 2629.15 810.722 2627.34 810.021 2625.5 809.417 2623.62 808.923L2526.02 783.184C2502.23 776.912 2486.14 754.768 2487.52 730.205L2493.19 629.425C2494.79 600.869 2472.94 576.417 2444.39 574.814 2442.45 574.705 2440.51 574.705 2438.58 574.814L2337.8 580.485C2313.24 581.862 2291.09 565.769 2284.82 541.98L2259.08 444.386C2251.78 416.731 2223.45 400.228 2195.79 407.525 2193.92 408.02 2192.07 408.621 2190.26 409.325L2096.16 445.862C2073.22 454.759 2047.2 446.294 2033.88 425.612L1979.25 340.757C1963.76 316.71 1931.72 309.767 1907.67 325.252 1906.03 326.308 1904.45 327.456 1902.94 328.691L1824.76 392.494C1805.7 408.061 1778.32 408.061 1759.25 392.494L1681.08 328.691C1658.93 310.593 1626.31 313.879 1608.21 336.026 1606.97 337.539 1605.83 339.118 1604.77 340.757L1550.13 425.612C1536.82 446.294 1510.79 454.759 1487.86 445.862L1393.76 409.325C1367.1 398.967 1337.09 412.186 1326.73 438.847 1326.03 440.657 1325.43 442.506 1324.93 444.386L1299.2 541.98C1292.93 565.769 1270.78 581.862 1246.22 580.485L1145.44 574.814C1116.88 573.211 1092.43 595.061 1090.83 623.617 1090.72 625.551 1090.72 627.49 1090.83 629.425L1096.5 730.205C1097.88 754.768 1081.78 776.912 1058 783.184L960.401 808.923C932.746 816.22 916.245 844.556 923.541 872.21 924.036 874.088 924.637 875.939 925.341 877.749L961.877 971.848C970.774 994.783 962.31 1020.81 941.628 1034.12L856.774 1088.76C832.721 1104.23 825.766 1136.28 841.24 1160.33 842.297 1161.98 843.447 1163.56 844.681 1165.07L908.51 1243.24C924.077 1262.31 924.077 1289.69 908.51 1308.76L844.681 1386.93C826.589 1409.08 829.883 1441.71 852.038 1459.8 853.55 1461.03 855.132 1462.18 856.774 1463.24L941.628 1517.88C962.31 1531.19 970.774 1557.22 961.877 1580.15L925.341 1674.25C914.983 1700.91 928.202 1730.92 954.862 1741.28 956.673 1741.98 958.521 1742.58 960.401 1743.08L1058 1768.82C1081.78 1775.09 1097.88 1797.23 1096.5 1821.8L1090.83 1922.58C1089.23 1951.13 1111.08 1975.58 1139.63 1977.19 1141.57 1977.29 1143.5 1977.29 1145.44 1977.19L1246.22 1971.52C1270.78 1970.14 1292.93 1986.23 1299.2 2010.02L1324.93 2107.61C1332.23 2135.27 1360.57 2151.77 1388.22 2144.47 1390.1 2143.98 1391.95 2143.38 1393.76 2142.68L1487.86 2106.14C1510.79 2097.24 1536.82 2105.71 1550.13 2126.39L1604.77 2211.24C1620.25 2235.29 1652.3 2242.23 1676.35 2226.75 1677.99 2225.69 1679.57 2224.54 1681.08 2223.31L1759.25 2159.51C1778.32 2143.94 1805.7 2143.94 1824.76 2159.51L1902.94 2223.31C1925.09 2241.41 1957.71 2238.12 1975.81 2215.97 1977.04 2214.46 1978.19 2212.88 1979.25 2211.24L2033.88 2126.39C2047.2 2105.71 2073.23 2097.24 2096.16 2106.14L2190.26 2142.68C2216.92 2153.03 2246.92 2139.81 2257.28 2113.15 2257.98 2111.34 2258.59 2109.49 2259.08 2107.61L2284.82 2010.02C2291.09 1986.23 2313.24 1970.14 2337.8 1971.52L2438.58 1977.19C2467.13 1978.79 2491.59 1956.94 2493.19 1928.38 2493.3 1926.45 2493.3 1924.51 2493.19 1922.58L2487.52 1821.8C2486.14 1797.23 2502.23 1775.09 2526.02 1768.82L2623.62 1743.08C2651.27 1735.78 2667.77 1707.45 2660.48 1679.79 2659.98 1677.91 2659.38 1676.06 2658.68 1674.25L2622.14 1580.15C2613.24 1557.22 2621.71 1531.19 2642.39 1517.88L2727.24 1463.24C2751.29 1447.76 2758.23 1415.71 2742.75 1391.66 2741.69 1390.02 2740.54 1388.44 2739.31 1386.93ZM1792.01 1949.25C1420.19 1949.25 1118.77 1647.82 1118.77 1276 1118.77 904.177 1420.19 602.754 1792.01 602.754 2163.83 602.754 2465.25 904.177 2465.25 1276 2464.83 1647.65 2163.66 1948.83 1792.01 1949.25Z" fill-rule="evenodd"/><path d="M1171.5 1275C1171.5 930.098 1449.53 650.5 1792.5 650.5 2135.47 650.5 2413.5 930.098 2413.5 1275 2413.5 1619.9 2135.47 1899.5 1792.5 1899.5 1449.53 1899.5 1171.5 1619.9 1171.5 1275Z" stroke="#000000" stroke-width="4.58333" stroke-miterlimit="8" fill-rule="evenodd"/><text fill="#FFFFFF" font-family="Calibri,Calibri_MSFontService,sans-serif" font-weight="400" font-size="367" transform="matrix(1 0 0 1 1420.91 1398)">NEW</text></g></svg>